<svg width="28" height="20" viewBox="0 0 28 20" fill="none" xmlns="http://www.w3.org/2000/svg">
<path d="M0 1.35135C0 0.605021 0.602694 0 1.34615 0H26.6538C27.3973 0 28 0.605021 28 1.35135C28 2.09768 27.3973 2.7027 26.6538 2.7027H1.34615C0.602694 2.7027 0 2.09768 0 1.35135Z" fill="white"/>
<path d="M0 10C0 9.25367 0.602694 8.64865 1.34615 8.64865H26.6538C27.3973 8.64865 28 9.25367 28 10C28 10.7463 27.3973 11.3514 26.6538 11.3514H1.34615C0.602694 11.3514 0 10.7463 0 10Z" fill="white"/>
<path d="M0 18.6486C0 17.9023 0.602694 17.2973 1.34615 17.2973H26.6538C27.3973 17.2973 28 17.9023 28 18.6486C28 19.395 27.3973 20 26.6538 20H1.34615C0.602694 20 0 19.395 0 18.6486Z" fill="white"/>
</svg>
