<svg width="30" height="30" viewBox="0 0 36 36" fill="none" xmlns="http://www.w3.org/2000/svg">
<g clip-path="url(#clip0_832:7423)">
<path d="M32.4827 25.2591H30.419C30.356 25.2256 30.0659 25.0348 29.5592 24.1751C28.6859 22.6931 28.2242 20.9701 28.2242 19.1923V14.5268C28.2242 14.4522 28.2234 14.3776 28.2218 14.3032C28.1657 11.6888 27.0904 9.24166 25.1938 7.41277C23.8031 6.07155 22.0881 5.17444 20.2322 4.79517C20.6599 4.28737 20.9179 3.6322 20.9179 2.91797C20.918 1.30901 19.609 0 18 0C16.3911 0 15.0821 1.30901 15.0821 2.91797C15.0821 3.63234 15.3401 4.28759 15.7679 4.79531C13.9123 5.17465 12.1976 6.07177 10.8069 7.41284C8.91044 9.24173 7.83508 11.6888 7.77897 14.3032C7.77736 14.3776 7.77658 14.4521 7.77658 14.5268V19.1914C7.77658 20.9697 7.31477 22.6931 6.44093 24.1753C5.93412 25.035 5.64387 25.2257 5.58101 25.2591H3.51733C3.129 25.2591 2.81421 25.5739 2.81421 25.9623V28.2065C2.81421 29.9627 4.24296 31.3914 5.99908 31.3914H13.7053V31.7054C13.7053 34.0734 15.6319 36.0001 18 36.0001C20.3681 36.0001 22.2947 34.0735 22.2947 31.7054V31.3914H30.001C31.7572 31.3914 33.1858 29.9627 33.1858 28.2065V25.9623C33.1858 25.5739 32.871 25.2591 32.4827 25.2591ZM18 1.40625C18.8336 1.40625 19.5117 2.08441 19.5117 2.91797C19.5117 3.75152 18.8336 4.42969 18 4.42969C17.1665 4.42969 16.4883 3.75152 16.4883 2.91797C16.4883 2.08441 17.1665 1.40625 18 1.40625ZM20.8885 31.7053C20.8885 33.298 19.5927 34.5938 18 34.5938C16.4073 34.5938 15.1116 33.298 15.1116 31.7053V31.3914H20.8885V31.7053ZM31.7796 28.2064C31.7796 29.1872 30.9817 29.9851 30.001 29.9851H5.99908C5.01837 29.9851 4.22046 29.1872 4.22046 28.2064V26.6653H14.8215C15.2098 26.6653 15.5246 26.3505 15.5246 25.9622C15.5246 25.5739 15.2098 25.2591 14.8215 25.2591H7.4239C7.49906 25.1434 7.57521 25.0203 7.65234 24.8893C8.65359 23.1909 9.18283 21.2206 9.18283 19.1912V14.5267C9.18283 14.4622 9.18347 14.3979 9.18487 14.3335C9.28352 9.73652 13.1492 5.9966 17.802 5.9966H18.1988C22.8516 5.9966 26.7172 9.73645 26.8159 14.3333C26.8174 14.3977 26.818 14.4622 26.818 14.5268V19.1923C26.818 21.221 27.3469 23.1909 28.3476 24.889C28.4248 25.0201 28.501 25.1434 28.5762 25.2591H21.1786C20.7903 25.2591 20.4755 25.5739 20.4755 25.9623C20.4755 26.3506 20.7903 26.6654 21.1786 26.6654H31.7797V28.2064H31.7796Z" fill="white"/>
<path d="M18.0126 26.6652C17.7153 26.6652 17.4425 26.4696 17.3475 26.1881C17.2552 25.9146 17.3423 25.6021 17.5666 25.4188C17.7973 25.2303 18.1307 25.2084 18.3837 25.3654C18.6294 25.518 18.7594 25.8151 18.7024 26.0992C18.6372 26.4236 18.3441 26.6652 18.0126 26.6652Z" fill="white"/>
</g>
<defs>
<clipPath id="clip0_832:7423">
<rect width="30" height="30" fill="white"/>
</clipPath>
</defs>
</svg>
